<?xml version="1.1" encoding="UTF-8"?>
<svg width="386px" height="372px" xmlns="http://www.w3.org/2000/svg" version="1.1">
  <title>Perl 5 Raptor Logo</title>
  <description>Copyright (C) 2011, Sebastian Riedel</description>
  <defs></defs>
  <g fill="none">
    <path id="Shape" d="M253,206 C245,214 246,215 242,224 C238,232 237,232 238,239 C238,243 240,242 244,246 C246,247 247,248 248,249 C250,252 249,252 251,254 C253,258 254,256 256,260 C258,265 258,266 257,272 C257,276 254,278 254,282 C253,292 252,300 252,301 C252,309 252,309 251,317 C251,325 250,325 248,332 C247,335 246,334 245,337 C244,340 245,339 244,342 C243,344 242,345 241,346 C241,346 240,346 239,346 C237,347 237,346 235,347 C233,348 232,347 231,349 C229,351 229,356 229,356 C229,356 228,353 227,351 C227,350 226,349 227,346 C227,343 228,343 229,340 C230,338 232,336 232,336 C228,338 228,339 223,341 C220,342 220,342 217,341 C215,340 215,339 215,339 C215,339 212,338 210,338 C207,339 203,344 203,344 C203,344 203,339 205,336 C206,332 206,332 209,330 C212,328 213,330 216,328 C221,325 225,320 225,320 C225,320 222,319 220,318 C217,316 217,316 215,313 C214,311 214,310 214,308 C215,306 217,304 217,304 C217,304 219,302 219,300 C220,298 220,297 219,295 C218,294 217,294 214,294 C212,294 212,293 210,294 C207,296 204,299 204,299 C204,299 204,295 206,293 C209,288 209,288 214,286 C218,284 219,284 223,284 C227,285 228,286 231,289 C233,290 234,300 234,300 C234,300 235,289 237,284 C238,280 237,275 237,275 C237,275 233,277 229,276 C223,275 222,275 216,271 C211,266 211,266 208,259 C206,255 207,253 205,249 C204,245 201,245 199,242 C196,237 193,232 193,232 C193,232 193,238 193,244 C193,249 193,248 193,254 C192,259 191,260 191,265 C191,271 192,270 194,275 C196,281 198,278 199,285 C199,288 197,294 197,294 C197,294 196,299 195,305 C194,313 195,314 194,322 C192,329 190,336 190,336 C190,336 189,342 185,346 C180,351 180,352 172,354 C169,355 169,354 167,354 C165,355 165,355 164,355 C163,356 162,355 160,356 C158,357 158,357 156,359 C154,360 151,364 151,364 C151,364 151,361 152,357 C153,353 158,350 158,350 C158,350 156,350 154,350 C152,351 152,351 150,351 C147,352 147,351 144,351 C141,352 138,356 138,356 C138,356 138,352 140,349 C142,346 143,346 146,344 C149,343 150,345 152,343 C159,339 159,338 165,333 C169,329 166,330 165,327 C164,325 164,325 164,323 C164,322 167,320 165,320 C161,321 159,321 158,324 C156,327 159,333 159,333 C159,333 153,331 152,328 C151,324 150,321 151,318 C153,314 155,310 159,308 C164,306 168,312 171,310 C175,307 174,307 175,302 C176,292 178,292 176,282 C173,273 171,273 166,264 C163,257 163,257 161,250 C159,243 163,241 160,236 C158,233 155,232 151,233 C148,234 147,236 146,239 C146,244 148,244 149,249 C151,255 150,255 151,261 C151,265 152,265 152,268 C151,271 151,271 150,273 C148,278 150,278 148,282 C146,286 143,288 143,288 C143,288 144,281 143,273 C143,271 142,272 141,269 C140,265 141,264 140,260 C139,251 138,242 138,242 C138,242 136,255 135,269 C135,272 136,272 136,275 C136,277 135,277 134,280 C134,285 134,285 134,291 C135,296 136,301 136,301 C136,301 133,299 131,296 C129,292 128,292 126,287 C125,284 125,284 125,280 C125,275 126,275 126,270 C127,259 127,248 127,248 L119,263 C119,263 119,266 118,268 C116,271 114,270 113,272 C111,274 112,275 113,278 C115,281 119,284 119,284 C119,284 113,283 109,280 C106,277 106,276 105,271 C104,269 104,268 106,265 C113,251 114,252 123,238 C129,229 132,220 135,219 C137,217 159,220 159,217 C158,214 128,193 126,192 C123,191 122,198 119,204 C117,208 119,209 116,211 C112,213 110,214 105,212 C90,205 92,200 77,193 C73,192 70,193 68,195 C63,200 61,208 63,208 C64,209 65,207 67,208 C69,208 71,207 73,207 C78,206 81,209 81,209 C81,209 77,209 74,211 C71,212 70,213 69,215 C68,217 66,216 65,217 C65,217 64,218 65,219 C66,220 67,218 69,218 C70,218 73,217 76,216 C80,214 80,214 84,211 C86,209 89,207 89,207 C89,207 89,211 87,214 C84,219 83,220 80,222 C75,226 72,225 72,226 C71,228 71,227 70,228 C70,229 70,230 71,230 C72,229 75,229 76,229 C77,230 79,229 81,228 C86,225 89,220 89,220 C89,220 88,228 84,231 C80,234 79,234 78,234 C77,235 77,235 76,236 C74,237 74,237 71,237 C69,236 64,233 59,230 C53,226 54,225 51,221 C46,215 43,213 44,207 C45,201 48,193 57,184 C63,179 67,176 75,178 C91,181 103,195 105,195 C106,194 113,174 113,163 C113,152 112,146 108,133 C104,117 100,102 98,101 C96,100 89,100 79,98 C65,97 63,96 49,95 C33,94 22,96 17,95 C13,94 13,93 12,92 C11,91 10,88 11,88 C12,88 13,87 13,87 L11,75 L17,86 L18,86 L15,71 L21,85 L23,85 L21,69 L27,84 L30,83 L28,72 L33,82 L36,82 L35,71 L39,81 L42,81 L39,68 L45,80 L47,79 L46,71 L51,77 L53,76 L51,67 L57,74 L58,74 L57,66 L60,73 L62,72 L62,68 L64,72 L65,72 L65,64 L68,71 L70,71 L70,66 L73,70 L75,70 L77,65 L79,69 C79,69 81,69 86,68 C92,66 98,63 98,63 L77,59 L74,64 L73,58 L71,57 L68,62 L67,57 L65,56 L62,62 L61,55 L59,55 L57,61 L55,54 L53,54 L52,63 L50,53 L49,53 L47,62 L45,53 L44,53 L43,65 L41,53 L40,53 L39,62 L38,53 L36,53 L34,65 L33,53 L32,53 L30,59 L29,52 L27,52 L25,62 L25,51 L23,51 L22,60 L21,51 L20,50 L18,64 L17,50 L16,50 L13,62 L12,49 C12,49 12,50 8,46 C3,43 7,38 9,34 C12,29 14,30 20,29 C43,27 42,29 65,28 C74,27 75,24 83,26 C90,27 91,28 97,31 C105,34 106,33 113,36 C121,39 122,39 129,44 C135,48 136,48 140,55 C145,64 145,64 147,75 C151,94 151,110 151,115 C151,120 152,119 156,121 C162,124 162,123 169,124 C179,125 180,124 190,126 C198,128 199,127 206,130 C213,133 219,139 219,139 C219,139 226,141 233,145 C237,147 237,148 241,150 C246,151 252,151 252,151 C252,151 266,151 281,149 C296,147 296,148 312,145 C322,142 331,138 331,138 C331,138 340,133 338,128 C336,123 329,123 325,118 C322,115 321,112 321,109 C320,106 321,102 325,98 C328,93 332,90 341,90 C354,88 361,88 369,93 C377,98 376,103 376,103 C376,103 370,97 362,96 C352,95 348,94 341,98 C335,101 334,104 336,110 C338,115 345,115 348,116 C351,118 357,120 359,128 C361,136 355,146 355,146 C355,146 349,156 322,169 C294,181 298,178 276,190 C264,197 263,197 253,206 Z M81,38 C83,38 85,37 85,35 C85,33 83,32 81,32 C78,32 75,33 75,35 C75,37 78,38 81,38 Z M81,38" fill="rgb(0,0,0)"></path>
  </g>
</svg>